<svg width="20" height="20" viewBox="0 0 20 20" fill="none" xmlns="http://www.w3.org/2000/svg">
<path d="M8.70856 6.22498C8.55023 6.22498 8.39187 6.16667 8.26687 6.04167L5.60854 3.38333L2.9502 6.04167C2.70853 6.28333 2.30854 6.28333 2.06687 6.04167C1.8252 5.8 1.8252 5.4 2.06687 5.15834L5.1669 2.05831C5.28356 1.94164 5.44187 1.875 5.60854 1.875C5.7752 1.875 5.93356 1.94164 6.05023 2.05831L9.1502 5.15834C9.39187 5.4 9.39187 5.8 9.1502 6.04167C9.0252 6.16667 8.8669 6.22498 8.70856 6.22498Z" fill="#333333"/>
<path d="M5.60828 18.125C5.26661 18.125 4.98328 17.8417 4.98328 17.5V2.5C4.98328 2.15833 5.26661 1.875 5.60828 1.875C5.94994 1.875 6.23328 2.15833 6.23328 2.5V17.5C6.23328 17.8417 5.94994 18.125 5.60828 18.125Z" fill="#333333"/>
<path d="M14.4 18.125C14.2334 18.125 14.075 18.0583 13.9583 17.9417L10.8584 14.8416C10.6167 14.6 10.6167 14.2 10.8584 13.9583C11.1 13.7166 11.5 13.7166 11.7417 13.9583L14.4 16.6166L17.0583 13.9583C17.3 13.7166 17.7 13.7166 17.9417 13.9583C18.1834 14.2 18.1834 14.6 17.9417 14.8416L14.8417 17.9417C14.725 18.0583 14.5584 18.125 14.4 18.125Z" fill="#292D32"/>
<path d="M14.3917 18.125C14.0501 18.125 13.7667 17.8417 13.7667 17.5V2.5C13.7667 2.15833 14.0501 1.875 14.3917 1.875C14.7334 1.875 15.0167 2.15833 15.0167 2.5V17.5C15.0167 17.8417 14.7417 18.125 14.3917 18.125Z" fill="#292D32"/>
</svg>
