<svg width="20" height="20" viewBox="0 0 20 20" fill="none" xmlns="http://www.w3.org/2000/svg">
<path d="M13.4916 1.66667H6.50829C3.47496 1.66667 1.66663 3.475 1.66663 6.50833V13.4833C1.66663 16.525 3.47496 18.3333 6.50829 18.3333H13.4833C16.5166 18.3333 18.325 16.525 18.325 13.4917V6.50833C18.3333 3.475 16.525 1.66667 13.4916 1.66667ZM5.83329 11.0917C5.23329 11.0917 4.74163 10.6 4.74163 10C4.74163 9.4 5.23329 8.90833 5.83329 8.90833C6.43329 8.90833 6.92496 9.4 6.92496 10C6.92496 10.6 6.43329 11.0917 5.83329 11.0917ZM9.99996 11.0917C9.39996 11.0917 8.90829 10.6 8.90829 10C8.90829 9.4 9.39996 8.90833 9.99996 8.90833C10.6 8.90833 11.0916 9.4 11.0916 10C11.0916 10.6 10.6 11.0917 9.99996 11.0917ZM14.1666 11.0917C13.5666 11.0917 13.075 10.6 13.075 10C13.075 9.4 13.5666 8.90833 14.1666 8.90833C14.7666 8.90833 15.2583 9.4 15.2583 10C15.2583 10.6 14.7666 11.0917 14.1666 11.0917Z" fill="#292D32"/>
</svg>
