<svg width="20" height="20" viewBox="0 0 20 20" fill="none" xmlns="http://www.w3.org/2000/svg">
<path d="M9.99992 15.4167C12.9915 15.4167 15.4166 12.9916 15.4166 10C15.4166 7.00847 12.9915 4.58334 9.99992 4.58334C7.00838 4.58334 4.58325 7.00847 4.58325 10C4.58325 12.9916 7.00838 15.4167 9.99992 15.4167Z" stroke="#F9FAFB" stroke-width="1.5" stroke-linecap="round" stroke-linejoin="round"/>
<path d="M15.9501 15.95L15.8417 15.8417M15.8417 4.15832L15.9501 4.04999L15.8417 4.15832ZM4.05008 15.95L4.15841 15.8417L4.05008 15.95ZM10.0001 1.73332V1.66666V1.73332ZM10.0001 18.3333V18.2667V18.3333ZM1.73341 9.99999H1.66675H1.73341ZM18.3334 9.99999H18.2667H18.3334ZM4.15841 4.15832L4.05008 4.04999L4.15841 4.15832Z" stroke="#F9FAFB" stroke-width="2" stroke-linecap="round" stroke-linejoin="round"/>
</svg>
