<svg width="21" height="20" viewBox="0 0 21 20" fill="none" xmlns="http://www.w3.org/2000/svg">
<path d="M6.74999 12.7083C6.59166 12.7083 6.43333 12.65 6.30833 12.525C6.06666 12.2833 6.06666 11.8833 6.30833 11.6417L8.97499 8.975C9.10833 8.84166 9.28333 8.775 9.47499 8.79166C9.65833 8.80833 9.82499 8.90833 9.93333 9.06666L10.8417 10.4333L13.8 7.475C14.0417 7.23333 14.4417 7.23333 14.6833 7.475C14.925 7.71666 14.925 8.11666 14.6833 8.35833L11.1833 11.8583C11.05 11.9917 10.875 12.0583 10.6833 12.0417C10.5 12.025 10.3333 11.925 10.225 11.7667L9.31666 10.4L7.19166 12.525C7.06666 12.65 6.90833 12.7083 6.74999 12.7083Z" fill="#DC2626"/>
<path d="M14.25 10.2083C13.9083 10.2083 13.625 9.925 13.625 9.58334V8.54167H12.5833C12.2417 8.54167 11.9583 8.25834 11.9583 7.91667C11.9583 7.57501 12.2417 7.29167 12.5833 7.29167H14.25C14.5917 7.29167 14.875 7.57501 14.875 7.91667V9.58334C14.875 9.925 14.5917 10.2083 14.25 10.2083Z" fill="#DC2626"/>
<path d="M13 18.9583H7.99999C3.47499 18.9583 1.54166 17.025 1.54166 12.5V7.50001C1.54166 2.97501 3.47499 1.04167 7.99999 1.04167H13C17.525 1.04167 19.4583 2.97501 19.4583 7.50001V12.5C19.4583 17.025 17.525 18.9583 13 18.9583ZM7.99999 2.29167C4.15832 2.29167 2.79166 3.65834 2.79166 7.50001V12.5C2.79166 16.3417 4.15832 17.7083 7.99999 17.7083H13C16.8417 17.7083 18.2083 16.3417 18.2083 12.5V7.50001C18.2083 3.65834 16.8417 2.29167 13 2.29167H7.99999Z" fill="#DC2626"/>
</svg>
